<mxfile host="app.diagrams.net" agent="Mozilla/5.0 (Macintosh; Intel Mac OS X 10_15_7) AppleWebKit/537.36 (KHTML, like Gecko) Chrome/139.0.0.0 Safari/537.36" version="28.1.0">
  <diagram name="第 1 页" id="eYIrVlji1aH3Q66vdWjJ">
    <mxGraphModel dx="946" dy="522" grid="1" gridSize="10" guides="1" tooltips="1" connect="1" arrows="1" fold="1" page="1" pageScale="1" pageWidth="827" pageHeight="1169" math="0" shadow="0">
      <root>
        <mxCell id="0" />
        <mxCell id="1" parent="0" />
        <mxCell id="UYgr33MTe-qf3Ftn3NBT-1" value="第三方及外部系统对接 （Third-Party &amp; External Systems）" style="whiteSpace=wrap;strokeWidth=2;" parent="1" vertex="1">
          <mxGeometry x="1811" y="1329" width="1036" height="128" as="geometry" />
        </mxCell>
        <mxCell id="UYgr33MTe-qf3Ftn3NBT-2" value="应用与客户端 （Applications &amp; Clients）" style="whiteSpace=wrap;strokeWidth=2;" parent="1" vertex="1">
          <mxGeometry x="20" y="961" width="1624" height="279" as="geometry" />
        </mxCell>
        <mxCell id="UYgr33MTe-qf3Ftn3NBT-3" value="核心服务平台 （Core Service Platform）" style="whiteSpace=wrap;strokeWidth=2;" parent="1" vertex="1">
          <mxGeometry x="1664" y="507" width="1300" height="733" as="geometry" />
        </mxCell>
        <mxCell id="UYgr33MTe-qf3Ftn3NBT-4" value="网络传输层 （Network Transmission Layer）" style="whiteSpace=wrap;strokeWidth=2;" parent="1" vertex="1">
          <mxGeometry x="1680" y="306" width="932" height="128" as="geometry" />
        </mxCell>
        <mxCell id="UYgr33MTe-qf3Ftn3NBT-5" value="现场智能设备" style="whiteSpace=wrap;strokeWidth=2;verticalAlign=bottom;" parent="1" vertex="1">
          <mxGeometry x="1588" y="40" width="1116" height="176" as="geometry" />
        </mxCell>
        <mxCell id="UYgr33MTe-qf3Ftn3NBT-6" value="6套 受限空间防爆气体检测布控球&#xa;（实时视频、有毒有害气体检测）" style="whiteSpace=wrap;strokeWidth=2;" parent="1" vertex="1">
          <mxGeometry x="1623" y="65" width="260" height="126" as="geometry" />
        </mxCell>
        <mxCell id="UYgr33MTe-qf3Ftn3NBT-7" value="8台 本安型防爆布控球&#xa;（360°实时视频）" style="whiteSpace=wrap;strokeWidth=2;" parent="1" vertex="1">
          <mxGeometry x="1933" y="89" width="217" height="78" as="geometry" />
        </mxCell>
        <mxCell id="UYgr33MTe-qf3Ftn3NBT-8" value="1套 移动测速仪&#xa;（超速抓拍、实时预览）" style="whiteSpace=wrap;strokeWidth=2;" parent="1" vertex="1">
          <mxGeometry x="2201" y="89" width="236" height="78" as="geometry" />
        </mxCell>
        <mxCell id="UYgr33MTe-qf3Ftn3NBT-9" value="6台 专网平板&#xa;（搭载移动APP）" style="whiteSpace=wrap;strokeWidth=2;" parent="1" vertex="1">
          <mxGeometry x="2487" y="89" width="183" height="78" as="geometry" />
        </mxCell>
        <mxCell id="UYgr33MTe-qf3Ftn3NBT-10" value="LTE专网基站 （3台）&#xa;（支撑30路高清视频并发）" style="whiteSpace=wrap;strokeWidth=2;" parent="1" vertex="1">
          <mxGeometry x="1901" y="331" width="253" height="78" as="geometry" />
        </mxCell>
        <mxCell id="UYgr33MTe-qf3Ftn3NBT-11" value="数据接入与处理服务" style="whiteSpace=wrap;strokeWidth=2;" parent="1" vertex="1">
          <mxGeometry x="1926" y="532" width="204" height="54" as="geometry" />
        </mxCell>
        <mxCell id="UYgr33MTe-qf3Ftn3NBT-12" value="视频管理服务&#xa;（实时预览、录像存储、回放）" style="whiteSpace=wrap;strokeWidth=2;" parent="1" vertex="1">
          <mxGeometry x="2480" y="636" width="260" height="102" as="geometry" />
        </mxCell>
        <mxCell id="UYgr33MTe-qf3Ftn3NBT-13" value="气体监测服务&#xa;（浓度分析、超标报警）" style="whiteSpace=wrap;strokeWidth=2;" parent="1" vertex="1">
          <mxGeometry x="1876" y="810" width="236" height="78" as="geometry" />
        </mxCell>
        <mxCell id="UYgr33MTe-qf3Ftn3NBT-14" value="AI智能行为分析服务" style="whiteSpace=wrap;strokeWidth=2;" parent="1" vertex="1">
          <mxGeometry x="2727" y="822" width="202" height="54" as="geometry" />
        </mxCell>
        <mxCell id="UYgr33MTe-qf3Ftn3NBT-15" value="报警中心服务&#xa;（统一告警、推送、处理）" style="whiteSpace=wrap;strokeWidth=2;" parent="1" vertex="1">
          <mxGeometry x="2217" y="986" width="252" height="78" as="geometry" />
        </mxCell>
        <mxCell id="UYgr33MTe-qf3Ftn3NBT-16" value="数据存储&#xa;（视频、气体、图片、日志等）" style="whiteSpace=wrap;strokeWidth=2;" parent="1" vertex="1">
          <mxGeometry x="1699" y="636" width="260" height="102" as="geometry" />
        </mxCell>
        <mxCell id="UYgr33MTe-qf3Ftn3NBT-17" value="双向音视频对讲服务" style="whiteSpace=wrap;strokeWidth=2;" parent="1" vertex="1">
          <mxGeometry x="2426" y="822" width="204" height="54" as="geometry" />
        </mxCell>
        <mxCell id="UYgr33MTe-qf3Ftn3NBT-18" value="API网关" style="whiteSpace=wrap;strokeWidth=2;" parent="1" vertex="1">
          <mxGeometry x="2233" y="1148" width="115" height="54" as="geometry" />
        </mxCell>
        <mxCell id="UYgr33MTe-qf3Ftn3NBT-19" value="移动APP （适配安卓/鸿蒙）" style="whiteSpace=wrap;strokeWidth=2;" parent="1" vertex="1">
          <mxGeometry x="383" y="998" width="260" height="54" as="geometry" />
        </mxCell>
        <mxCell id="UYgr33MTe-qf3Ftn3NBT-20" value="- 实时视频与气体监控" style="whiteSpace=wrap;strokeWidth=2;" parent="1" vertex="1">
          <mxGeometry x="1295" y="1136" width="260" height="78" as="geometry" />
        </mxCell>
        <mxCell id="UYgr33MTe-qf3Ftn3NBT-21" value="- 报警推送、回放、处理" style="whiteSpace=wrap;strokeWidth=2;" parent="1" vertex="1">
          <mxGeometry x="985" y="1136" width="260" height="78" as="geometry" />
        </mxCell>
        <mxCell id="UYgr33MTe-qf3Ftn3NBT-22" value="- 拍录传 （自动关联GPS/时间/人员）" style="whiteSpace=wrap;strokeWidth=2;" parent="1" vertex="1">
          <mxGeometry x="365" y="1136" width="260" height="78" as="geometry" />
        </mxCell>
        <mxCell id="UYgr33MTe-qf3Ftn3NBT-23" value="- 手机直播" style="whiteSpace=wrap;strokeWidth=2;" parent="1" vertex="1">
          <mxGeometry x="55" y="1136" width="260" height="78" as="geometry" />
        </mxCell>
        <mxCell id="UYgr33MTe-qf3Ftn3NBT-24" value="- 双向视频语音对讲" style="whiteSpace=wrap;strokeWidth=2;" parent="1" vertex="1">
          <mxGeometry x="675" y="1136" width="260" height="78" as="geometry" />
        </mxCell>
        <mxCell id="UYgr33MTe-qf3Ftn3NBT-25" value="电脑客户端 （PC Client）&#xa;为后方管理人员提供" style="whiteSpace=wrap;strokeWidth=2;" parent="1" vertex="1">
          <mxGeometry x="1366" y="986" width="243" height="78" as="geometry" />
        </mxCell>
        <mxCell id="UYgr33MTe-qf3Ftn3NBT-26" value="对接作业票，匹配图像，统计上线率" style="whiteSpace=wrap;strokeWidth=2;" parent="1" vertex="1">
          <mxGeometry x="2552" y="1354" width="260" height="78" as="geometry" />
        </mxCell>
        <mxCell id="UYgr33MTe-qf3Ftn3NBT-27" value="企业短信平台" style="whiteSpace=wrap;strokeWidth=2;" parent="1" vertex="1">
          <mxGeometry x="2346" y="1366" width="156" height="54" as="geometry" />
        </mxCell>
        <mxCell id="UYgr33MTe-qf3Ftn3NBT-28" value="中油即时通" style="whiteSpace=wrap;strokeWidth=2;" parent="1" vertex="1">
          <mxGeometry x="2156" y="1366" width="140" height="54" as="geometry" />
        </mxCell>
        <mxCell id="UYgr33MTe-qf3Ftn3NBT-29" value="实现&#39;异常作业行为识别&#39;、&#39;气体泄漏趋势预测&#39;" style="whiteSpace=wrap;strokeWidth=2;" parent="1" vertex="1">
          <mxGeometry x="1846" y="1354" width="260" height="78" as="geometry" />
        </mxCell>
        <mxCell id="UYgr33MTe-qf3Ftn3NBT-30" value="" style="curved=1;startArrow=none;endArrow=none;exitX=1;exitY=0.7;entryX=0.43;entryY=0;rounded=0;" parent="1" source="UYgr33MTe-qf3Ftn3NBT-19" target="UYgr33MTe-qf3Ftn3NBT-20" edge="1">
          <mxGeometry relative="1" as="geometry">
            <Array as="points">
              <mxPoint x="1391" y="1100" />
            </Array>
          </mxGeometry>
        </mxCell>
        <mxCell id="UYgr33MTe-qf3Ftn3NBT-31" value="" style="curved=1;startArrow=none;endArrow=none;exitX=1;exitY=0.79;entryX=0.5;entryY=0;rounded=0;" parent="1" source="UYgr33MTe-qf3Ftn3NBT-19" target="UYgr33MTe-qf3Ftn3NBT-21" edge="1">
          <mxGeometry relative="1" as="geometry">
            <Array as="points">
              <mxPoint x="1115" y="1100" />
            </Array>
          </mxGeometry>
        </mxCell>
        <mxCell id="UYgr33MTe-qf3Ftn3NBT-32" value="" style="curved=1;startArrow=none;endArrow=none;exitX=0.49;exitY=0.99;entryX=0.52;entryY=0;rounded=0;" parent="1" source="UYgr33MTe-qf3Ftn3NBT-19" target="UYgr33MTe-qf3Ftn3NBT-22" edge="1">
          <mxGeometry relative="1" as="geometry">
            <Array as="points">
              <mxPoint x="505" y="1100" />
            </Array>
          </mxGeometry>
        </mxCell>
        <mxCell id="UYgr33MTe-qf3Ftn3NBT-33" value="" style="curved=1;startArrow=none;endArrow=none;exitX=0.5;exitY=1;entryX=0.8;entryY=0;rounded=0;exitDx=0;exitDy=0;" parent="1" source="UYgr33MTe-qf3Ftn3NBT-19" target="UYgr33MTe-qf3Ftn3NBT-23" edge="1">
          <mxGeometry relative="1" as="geometry">
            <Array as="points">
              <mxPoint x="338" y="1100" />
            </Array>
          </mxGeometry>
        </mxCell>
        <mxCell id="UYgr33MTe-qf3Ftn3NBT-35" value="无线视频 &amp; 气体数据" style="curved=1;startArrow=none;endArrow=block;exitX=0.5;exitY=1;entryX=0;entryY=0.12;rounded=0;" parent="1" source="UYgr33MTe-qf3Ftn3NBT-6" target="UYgr33MTe-qf3Ftn3NBT-10" edge="1">
          <mxGeometry relative="1" as="geometry">
            <Array as="points">
              <mxPoint x="1753" y="306" />
            </Array>
          </mxGeometry>
        </mxCell>
        <mxCell id="UYgr33MTe-qf3Ftn3NBT-36" value="无线视频数据" style="curved=1;startArrow=none;endArrow=block;exitX=0.5;exitY=1;entryX=0.54;entryY=0;rounded=0;" parent="1" source="UYgr33MTe-qf3Ftn3NBT-7" target="UYgr33MTe-qf3Ftn3NBT-10" edge="1">
          <mxGeometry relative="1" as="geometry">
            <Array as="points">
              <mxPoint x="2042" y="306" />
            </Array>
          </mxGeometry>
        </mxCell>
        <mxCell id="UYgr33MTe-qf3Ftn3NBT-37" value="无线测速 &amp; 视频数据" style="curved=1;startArrow=none;endArrow=block;exitX=0.5;exitY=1;entryX=1;entryY=0.14;rounded=0;" parent="1" source="UYgr33MTe-qf3Ftn3NBT-8" target="UYgr33MTe-qf3Ftn3NBT-10" edge="1">
          <mxGeometry relative="1" as="geometry">
            <Array as="points">
              <mxPoint x="2319" y="306" />
            </Array>
          </mxGeometry>
        </mxCell>
        <mxCell id="UYgr33MTe-qf3Ftn3NBT-38" value="拍录传数据 （加密） &amp; 直播视频流" style="curved=1;startArrow=none;endArrow=block;exitX=0.5;exitY=1;entryX=1;entryY=0.31;rounded=0;" parent="1" source="UYgr33MTe-qf3Ftn3NBT-9" target="UYgr33MTe-qf3Ftn3NBT-10" edge="1">
          <mxGeometry relative="1" as="geometry">
            <Array as="points">
              <mxPoint x="2578" y="306" />
            </Array>
          </mxGeometry>
        </mxCell>
        <mxCell id="UYgr33MTe-qf3Ftn3NBT-39" value="30路并发数据流" style="curved=1;startArrow=none;endArrow=block;exitX=0.5;exitY=1;entryX=0.5;entryY=-0.01;rounded=0;" parent="1" source="UYgr33MTe-qf3Ftn3NBT-10" target="UYgr33MTe-qf3Ftn3NBT-11" edge="1">
          <mxGeometry relative="1" as="geometry">
            <Array as="points" />
          </mxGeometry>
        </mxCell>
        <mxCell id="UYgr33MTe-qf3Ftn3NBT-40" value="" style="curved=1;startArrow=none;endArrow=block;exitX=1;exitY=0.66;entryX=0.5;entryY=0;rounded=0;" parent="1" source="UYgr33MTe-qf3Ftn3NBT-11" target="UYgr33MTe-qf3Ftn3NBT-12" edge="1">
          <mxGeometry relative="1" as="geometry">
            <Array as="points">
              <mxPoint x="2610" y="611" />
            </Array>
          </mxGeometry>
        </mxCell>
        <mxCell id="UYgr33MTe-qf3Ftn3NBT-41" value="" style="curved=1;startArrow=none;endArrow=block;exitX=0.41;exitY=0.99;entryX=0.5;entryY=0;rounded=0;" parent="1" source="UYgr33MTe-qf3Ftn3NBT-11" target="UYgr33MTe-qf3Ftn3NBT-13" edge="1">
          <mxGeometry relative="1" as="geometry">
            <Array as="points">
              <mxPoint x="1994" y="611" />
            </Array>
          </mxGeometry>
        </mxCell>
        <mxCell id="UYgr33MTe-qf3Ftn3NBT-42" value="" style="curved=1;startArrow=none;endArrow=block;exitX=0;exitY=0.99;entryX=0.5;entryY=0;rounded=0;" parent="1" source="UYgr33MTe-qf3Ftn3NBT-11" target="UYgr33MTe-qf3Ftn3NBT-16" edge="1">
          <mxGeometry relative="1" as="geometry">
            <Array as="points">
              <mxPoint x="1829" y="611" />
            </Array>
          </mxGeometry>
        </mxCell>
        <mxCell id="UYgr33MTe-qf3Ftn3NBT-43" value="视频流" style="curved=1;startArrow=none;endArrow=block;exitX=0.99;exitY=1;entryX=0.5;entryY=0;rounded=0;" parent="1" source="UYgr33MTe-qf3Ftn3NBT-12" target="UYgr33MTe-qf3Ftn3NBT-14" edge="1">
          <mxGeometry relative="1" as="geometry">
            <Array as="points">
              <mxPoint x="2828" y="774" />
            </Array>
          </mxGeometry>
        </mxCell>
        <mxCell id="UYgr33MTe-qf3Ftn3NBT-44" value="超标数据" style="curved=1;startArrow=none;endArrow=block;exitX=0.56;exitY=1;entryX=0;entryY=0.17;rounded=0;" parent="1" source="UYgr33MTe-qf3Ftn3NBT-13" target="UYgr33MTe-qf3Ftn3NBT-15" edge="1">
          <mxGeometry relative="1" as="geometry">
            <Array as="points">
              <mxPoint x="2021" y="924" />
              <mxPoint x="2021" y="961" />
            </Array>
          </mxGeometry>
        </mxCell>
        <mxCell id="UYgr33MTe-qf3Ftn3NBT-45" value="AI分析预警" style="curved=1;startArrow=none;endArrow=block;exitX=0.5;exitY=1;entryX=1;entryY=0.28;rounded=0;" parent="1" source="UYgr33MTe-qf3Ftn3NBT-14" target="UYgr33MTe-qf3Ftn3NBT-15" edge="1">
          <mxGeometry relative="1" as="geometry">
            <Array as="points">
              <mxPoint x="2828" y="961" />
            </Array>
          </mxGeometry>
        </mxCell>
        <mxCell id="UYgr33MTe-qf3Ftn3NBT-46" value="实时视频流 &amp; 报警视频回放" style="curved=1;startArrow=none;endArrow=block;exitX=0.63;exitY=1;entryX=1;entryY=0.4;rounded=0;" parent="1" source="UYgr33MTe-qf3Ftn3NBT-12" target="UYgr33MTe-qf3Ftn3NBT-20" edge="1">
          <mxGeometry relative="1" as="geometry">
            <Array as="points">
              <mxPoint x="2667" y="774" />
              <mxPoint x="2667" y="1100" />
            </Array>
          </mxGeometry>
        </mxCell>
        <mxCell id="UYgr33MTe-qf3Ftn3NBT-47" value="实时视频流 &amp; 报警视频回放" style="curved=1;startArrow=none;endArrow=block;exitX=0;exitY=0.75;entryX=1;entryY=0.38;rounded=0;" parent="1" source="UYgr33MTe-qf3Ftn3NBT-12" target="UYgr33MTe-qf3Ftn3NBT-21" edge="1">
          <mxGeometry relative="1" as="geometry">
            <Array as="points">
              <mxPoint x="2175" y="774" />
              <mxPoint x="2175" y="1100" />
            </Array>
          </mxGeometry>
        </mxCell>
        <mxCell id="UYgr33MTe-qf3Ftn3NBT-48" value="实时气体浓度" style="curved=1;startArrow=none;endArrow=block;exitX=0.21;exitY=1;entryX=1;entryY=0.22;rounded=0;" parent="1" source="UYgr33MTe-qf3Ftn3NBT-13" target="UYgr33MTe-qf3Ftn3NBT-20" edge="1">
          <mxGeometry relative="1" as="geometry">
            <Array as="points">
              <mxPoint x="1864" y="924" />
              <mxPoint x="1864" y="1100" />
            </Array>
          </mxGeometry>
        </mxCell>
        <mxCell id="UYgr33MTe-qf3Ftn3NBT-49" value="报警推送" style="curved=1;startArrow=none;endArrow=block;exitX=0.68;exitY=0.99;entryX=1;entryY=0.41;rounded=0;" parent="1" source="UYgr33MTe-qf3Ftn3NBT-15" target="UYgr33MTe-qf3Ftn3NBT-21" edge="1">
          <mxGeometry relative="1" as="geometry">
            <Array as="points">
              <mxPoint x="2430" y="1100" />
            </Array>
          </mxGeometry>
        </mxCell>
        <mxCell id="UYgr33MTe-qf3Ftn3NBT-50" value="告警短信提醒" style="curved=1;startArrow=none;endArrow=block;exitX=0.39;exitY=0.99;entryX=0.5;entryY=0;rounded=0;" parent="1" source="UYgr33MTe-qf3Ftn3NBT-15" target="UYgr33MTe-qf3Ftn3NBT-18" edge="1">
          <mxGeometry relative="1" as="geometry">
            <Array as="points">
              <mxPoint x="2291" y="1100" />
            </Array>
          </mxGeometry>
        </mxCell>
        <mxCell id="UYgr33MTe-qf3Ftn3NBT-51" value="" style="curved=1;startArrow=block;endArrow=block;exitX=0.52;exitY=1;entryX=1;entryY=0.43;rounded=0;" parent="1" source="UYgr33MTe-qf3Ftn3NBT-17" target="UYgr33MTe-qf3Ftn3NBT-24" edge="1">
          <mxGeometry relative="1" as="geometry">
            <Array as="points">
              <mxPoint x="2538" y="924" />
              <mxPoint x="2538" y="1100" />
            </Array>
          </mxGeometry>
        </mxCell>
        <mxCell id="UYgr33MTe-qf3Ftn3NBT-52" value="" style="curved=1;startArrow=block;endArrow=block;exitX=0.31;exitY=1;entryX=1;entryY=0.39;rounded=0;" parent="1" source="UYgr33MTe-qf3Ftn3NBT-17" target="UYgr33MTe-qf3Ftn3NBT-25" edge="1">
          <mxGeometry relative="1" as="geometry">
            <Array as="points">
              <mxPoint x="2421" y="924" />
              <mxPoint x="2421" y="961" />
            </Array>
          </mxGeometry>
        </mxCell>
        <mxCell id="UYgr33MTe-qf3Ftn3NBT-53" value="远程监控 &amp; 指挥调度" style="curved=1;startArrow=none;endArrow=block;exitX=0.5;exitY=0.99;entryX=0;entryY=0.4;rounded=0;" parent="1" source="UYgr33MTe-qf3Ftn3NBT-25" target="UYgr33MTe-qf3Ftn3NBT-18" edge="1">
          <mxGeometry relative="1" as="geometry">
            <Array as="points">
              <mxPoint x="1488" y="1100" />
            </Array>
          </mxGeometry>
        </mxCell>
        <mxCell id="UYgr33MTe-qf3Ftn3NBT-54" value="API调用" style="curved=1;startArrow=block;endArrow=block;exitX=1;exitY=0.68;entryX=0.5;entryY=0;rounded=0;" parent="1" source="UYgr33MTe-qf3Ftn3NBT-18" target="UYgr33MTe-qf3Ftn3NBT-26" edge="1">
          <mxGeometry relative="1" as="geometry">
            <Array as="points">
              <mxPoint x="2682" y="1239" />
            </Array>
          </mxGeometry>
        </mxCell>
        <mxCell id="UYgr33MTe-qf3Ftn3NBT-55" value="API调用" style="curved=1;startArrow=none;endArrow=block;exitX=0.99;exitY=1;entryX=0.5;entryY=0;rounded=0;" parent="1" source="UYgr33MTe-qf3Ftn3NBT-18" target="UYgr33MTe-qf3Ftn3NBT-27" edge="1">
          <mxGeometry relative="1" as="geometry">
            <Array as="points">
              <mxPoint x="2424" y="1239" />
            </Array>
          </mxGeometry>
        </mxCell>
        <mxCell id="UYgr33MTe-qf3Ftn3NBT-56" value="API调用" style="curved=1;startArrow=none;endArrow=block;exitX=0.26;exitY=1;entryX=0.5;entryY=0;rounded=0;" parent="1" source="UYgr33MTe-qf3Ftn3NBT-18" target="UYgr33MTe-qf3Ftn3NBT-28" edge="1">
          <mxGeometry relative="1" as="geometry">
            <Array as="points">
              <mxPoint x="2226" y="1239" />
            </Array>
          </mxGeometry>
        </mxCell>
        <mxCell id="UYgr33MTe-qf3Ftn3NBT-57" value="预留RESTful API&#xa;（视频流、气体数据）" style="curved=1;startArrow=none;endArrow=block;exitX=0;exitY=0.72;entryX=0.5;entryY=0;rounded=0;" parent="1" source="UYgr33MTe-qf3Ftn3NBT-18" target="UYgr33MTe-qf3Ftn3NBT-29" edge="1">
          <mxGeometry relative="1" as="geometry">
            <Array as="points">
              <mxPoint x="1976" y="1239" />
            </Array>
          </mxGeometry>
        </mxCell>
        <mxCell id="7O_4velFhVwOfgmNwq1y-2" style="rounded=0;orthogonalLoop=1;jettySize=auto;html=1;endArrow=none;endFill=0;" edge="1" parent="1" target="UYgr33MTe-qf3Ftn3NBT-24">
          <mxGeometry relative="1" as="geometry">
            <mxPoint x="510" y="1050" as="sourcePoint" />
          </mxGeometry>
        </mxCell>
      </root>
    </mxGraphModel>
  </diagram>
</mxfile>
